<?xml version="1.0" standalone="no"?>
<!DOCTYPE svg PUBLIC "-//W3C//DTD SVG 20010904//EN"
 "http://www.w3.org/TR/2001/REC-SVG-20010904/DTD/svg10.dtd">
<svg version="1.0" xmlns="http://www.w3.org/2000/svg"
 width="2000.000000pt" height="2000.000000pt" viewBox="0 0 2000.000000 2000.000000"
 preserveAspectRatio="xMidYMid meet">

<g transform="translate(0.000000,2000.000000) scale(0.100000,-0.100000)"
fill="#000000" stroke="none">
<path d="M2670 10230 l0 -780 155 0 155 0 0 210 0 210 30 0 c27 0 46 -21 197
-210 l168 -210 198 0 c113 0 197 4 197 9 0 5 -101 129 -225 276 l-225 266 213
245 c116 135 218 254 226 265 13 19 9 19 -190 19 l-204 -1 -163 -199 c-145
-178 -166 -200 -192 -200 l-30 0 0 440 0 440 -155 0 -155 0 0 -780z"/>
<path d="M5142 10233 l3 -778 155 0 155 0 3 778 2 777 -160 0 -160 0 2 -777z"/>
<path d="M9712 10233 l3 -778 58 -3 57 -3 0 268 c1 438 18 532 114 629 69 68
127 88 246 82 76 -4 95 -8 137 -34 27 -16 62 -51 80 -78 62 -92 66 -114 71
-509 l4 -358 62 3 61 3 -1 360 c0 307 -3 369 -17 424 -60 224 -254 346 -479
301 -114 -22 -196 -76 -260 -170 -16 -24 -17 -8 -17 308 l-1 332 -60 0 -60 0
2 -777z"/>
<path d="M13412 10228 l3 -773 60 0 60 0 3 773 2 772 -65 0 -65 0 2 -772z"/>
<path d="M5787 10833 c-4 -3 -7 -73 -7 -155 l0 -148 -75 0 -75 0 0 -135 0
-135 74 0 74 0 4 -257 c5 -290 11 -321 75 -413 73 -103 211 -152 383 -134 l85
9 3 137 3 138 -58 -6 c-70 -8 -123 11 -150 52 -16 25 -18 52 -18 249 l0 220
113 3 112 3 0 134 0 134 -112 3 -113 3 -3 153 -3 152 -153 0 c-84 0 -156 -3
-159 -7z"/>
<path d="M6628 10688 l-3 -153 -82 -3 -83 -3 0 -54 0 -55 85 0 85 0 0 -359 c0
-411 3 -428 77 -511 68 -76 182 -113 297 -96 l46 7 0 52 0 52 -73 0 c-92 1
-157 30 -195 88 l-27 40 -3 364 -3 363 151 0 150 0 0 55 0 55 -150 0 -150 0 0
155 0 155 -60 0 -59 0 -3 -152z"/>
<path d="M7623 10535 c-173 -38 -318 -184 -368 -371 -21 -77 -21 -249 0 -329
67 -259 273 -410 534 -392 133 9 230 48 314 126 50 46 107 124 107 147 0 6
-23 21 -50 32 l-50 21 -19 -38 c-23 -44 -85 -102 -138 -129 -98 -50 -275 -56
-368 -11 -118 56 -214 207 -215 337 l0 32 429 0 c485 0 441 -9 441 89 0 137
-46 257 -135 350 -120 126 -298 176 -482 136z m278 -137 c115 -53 186 -149
196 -267 l6 -61 -367 0 -368 0 7 43 c16 105 105 231 197 278 68 35 87 39 183
36 72 -2 101 -8 146 -29z"/>
<path d="M8841 10534 c-186 -40 -331 -185 -376 -376 -19 -83 -19 -257 0 -333
49 -191 185 -327 371 -371 89 -21 235 -14 318 15 110 39 211 122 261 215 23
42 21 44 -48 67 -38 13 -41 12 -56 -11 -38 -58 -98 -112 -159 -142 -55 -28
-78 -33 -157 -36 -151 -7 -256 37 -331 139 -56 77 -76 139 -82 258 -8 165 31
283 120 367 87 82 165 109 297 102 137 -7 251 -71 302 -171 13 -24 25 -37 34
-34 7 3 31 11 54 18 23 7 41 18 41 24 0 24 -82 135 -123 169 -124 100 -297
137 -466 100z"/>
<path d="M11294 10536 c-88 -21 -181 -91 -231 -172 -10 -16 -12 -2 -12 74 l-1
92 -60 0 -60 0 2 -537 3 -538 57 -3 56 -3 5 343 c5 386 10 422 75 518 30 44
51 62 105 89 61 32 76 35 150 35 176 -1 280 -96 307 -283 5 -36 10 -209 10
-383 l0 -318 60 0 60 0 0 353 c0 392 -6 445 -61 547 -83 157 -273 232 -465
186z"/>
<path d="M12482 10535 c-178 -39 -306 -150 -369 -321 -34 -92 -43 -275 -19
-377 57 -242 256 -397 511 -397 251 0 448 152 512 393 11 41 16 99 16 172 -1
179 -55 311 -166 411 -126 113 -307 157 -485 119z m296 -140 c80 -36 161 -121
193 -202 28 -72 38 -247 19 -332 -26 -118 -101 -213 -210 -265 -61 -29 -73
-31 -175 -31 -100 0 -116 3 -171 28 -146 67 -224 208 -224 402 0 217 101 370
278 421 78 23 215 13 290 -21z"/>
<path d="M14214 10535 c-246 -53 -404 -266 -404 -545 0 -383 308 -624 676
-530 98 25 171 68 239 142 157 169 190 450 80 674 -41 84 -134 177 -217 218
-106 52 -251 68 -374 41z m299 -143 c121 -56 195 -162 218 -311 28 -184 -35
-368 -155 -451 -111 -76 -289 -93 -408 -38 -113 52 -186 147 -213 275 -54 252
43 467 241 539 59 21 82 24 160 21 76 -3 103 -9 157 -35z"/>
<path d="M15448 10534 c-124 -30 -241 -120 -301 -231 -63 -119 -87 -340 -52
-478 66 -256 259 -400 513 -382 144 10 266 75 339 181 l33 48 0 -43 c0 -24 -7
-72 -15 -107 -53 -225 -241 -358 -539 -379 l-88 -6 6 -56 c4 -30 8 -57 10 -59
9 -9 228 20 296 39 225 62 380 215 436 430 14 54 18 137 21 552 l5 487 -61 0
-61 0 0 -72 c0 -40 -3 -90 -6 -110 l-7 -38 -27 43 c-100 157 -302 230 -502
181z m287 -125 c110 -41 207 -160 234 -287 15 -72 14 -206 -3 -267 -31 -118
-102 -212 -194 -259 -149 -75 -351 -43 -453 72 -75 86 -109 185 -109 324 0
214 90 363 253 419 74 26 200 25 272 -2z"/>
<path d="M3912 10158 c4 -322 7 -381 22 -428 58 -178 172 -274 340 -287 109
-8 186 17 282 94 l42 33 7 -47 c11 -77 2 -73 156 -73 l139 0 0 540 0 540 -154
0 -155 0 -3 -337 -3 -338 -25 -43 c-77 -135 -278 -113 -319 35 -7 23 -11 166
-11 361 l0 322 -161 0 -161 0 4 -372z"/>
<path d="M16370 10413 c27 -65 125 -302 219 -528 94 -225 171 -414 171 -420 0
-6 -38 -104 -85 -219 -47 -115 -85 -212 -85 -217 0 -5 25 -9 55 -9 42 0 56 4
64 18 8 15 506 1252 580 1440 l21 52 -64 0 -63 0 -173 -451 c-96 -247 -177
-452 -180 -454 -3 -2 -89 201 -191 451 l-184 454 -67 0 -67 0 49 -117z"/>
</g>
</svg>
